<svg fill="none" xmlns="http://www.w3.org/2000/svg" viewBox="0 0 32 26"><path d="M31 1.013a14.986 14.986 0 0 1-4.282 2.047 6.13 6.13 0 0 0-3.127-1.88 6.222 6.222 0 0 0-3.66.214 6.09 6.09 0 0 0-2.877 2.233A5.91 5.91 0 0 0 16 7.072V8.41a14.772 14.772 0 0 1-6.912-1.518 14.46 14.46 0 0 1-5.36-4.541s-5.455 12.038 6.818 17.388A16.1 16.1 0 0 1 1 22.414c12.273 6.687 27.273 0 27.273-15.382a5.896 5.896 0 0 0-.11-1.11A10.277 10.277 0 0 0 31 1.013v0Z" stroke="#fff" stroke-width="2" stroke-linecap="round" stroke-linejoin="round"/></svg>